<svg width="20" height="20" viewBox="0 0 20 20" fill="none" xmlns="http://www.w3.org/2000/svg">
<path d="M18.4211 20C18.8398 20 19.2414 19.8336 19.5375 19.5375C19.8336 19.2414 20 18.8398 20 18.4211V14.7368C20 14.3181 19.8336 13.9165 19.5375 13.6204C19.2414 13.3242 18.8398 13.1579 18.4211 13.1579C17.1895 13.1579 15.9789 12.9684 14.8211 12.5789C14.5442 12.4916 14.2487 12.4817 13.9667 12.5503C13.6846 12.619 13.4268 12.7636 13.2211 12.9684L11.7053 14.4842C9.08657 13.0552 6.9343 10.9029 5.50526 8.28421L7.01053 6.77895C7.44211 6.36842 7.6 5.75789 7.41053 5.16842C7.03158 4.02105 6.84211 2.81053 6.84211 1.57895C6.84211 1.16018 6.67575 0.758573 6.37964 0.462463C6.08353 0.166353 5.68192 0 5.26316 0H1.57895C1.16018 0 0.758573 0.166353 0.462463 0.462463C0.166353 0.758573 0 1.16018 0 1.57895C0 11.7368 8.26316 20 18.4211 20ZM1.57895 1.05263H5.26316C5.40275 1.05263 5.53662 1.10808 5.63532 1.20679C5.73402 1.30549 5.78947 1.43936 5.78947 1.57895C5.78947 2.92632 6 4.24211 6.41053 5.49474C6.46316 5.64211 6.45263 5.85263 6.28421 6.02105L4.21053 8.08421C5.94737 11.4842 8.49474 14.0316 11.9053 15.7895L13.9579 13.7158C14.1053 13.5684 14.3053 13.5263 14.4947 13.5789C15.7579 14 17.0737 14.2105 18.4211 14.2105C18.5606 14.2105 18.6945 14.266 18.7932 14.3647C18.8919 14.4634 18.9474 14.5973 18.9474 14.7368V18.4211C18.9474 18.5606 18.8919 18.6945 18.7932 18.7932C18.6945 18.8919 18.5606 18.9474 18.4211 18.9474C8.8421 18.9474 1.05263 11.1579 1.05263 1.57895C1.05263 1.43936 1.10808 1.30549 1.20679 1.20679C1.30549 1.10808 1.43936 1.05263 1.57895 1.05263Z" fill="white"/>
</svg>
