<svg width="40" height="40" viewBox="0 0 40 40" fill="none" xmlns="http://www.w3.org/2000/svg">
<path opacity="0.6" d="M19.445 3.33331H13.8884C12.4149 3.33331 11.0017 3.91866 9.95979 4.96058C8.91787 6.0025 8.33252 7.41565 8.33252 8.88915C8.33252 10.3626 8.91787 11.7758 9.95979 12.8177C11.0017 13.8596 12.4149 14.445 13.8884 14.445H19.445V3.33331Z" fill="white"/>
<path opacity="0.4" d="M19.445 14.445H13.8884C12.4151 14.445 11.0022 15.0303 9.9604 16.072C8.91863 17.1138 8.33337 18.5267 8.33337 20C8.33337 21.4733 8.91863 22.8862 9.9604 23.928C11.0022 24.9697 12.4151 25.555 13.8884 25.555H19.445V14.445Z" fill="white"/>
<path d="M30.555 20C30.555 21.4735 29.9697 22.8866 28.9278 23.9286C27.8858 24.9705 26.4727 25.5558 24.9992 25.5558C23.5257 25.5558 22.1125 24.9705 21.0706 23.9286C20.0287 22.8866 19.4434 21.4735 19.4434 20C19.4434 18.5265 20.0287 17.1133 21.0706 16.0714C22.1125 15.0295 23.5257 14.4442 24.9992 14.4442C26.4727 14.4442 27.8858 15.0295 28.9278 16.0714C29.9697 17.1133 30.555 18.5265 30.555 20Z" fill="white"/>
<path opacity="0.2" d="M13.8883 25.5567H19.445V31.1117C19.4446 32.2102 19.1186 33.284 18.5081 34.1972C17.8976 35.1105 17.03 35.8222 16.015 36.2425C15 36.6627 13.8832 36.7726 12.8058 36.5582C11.7284 36.3438 10.7388 35.8148 9.96199 35.038C9.18521 34.2612 8.65618 33.2715 8.44178 32.1941C8.22739 31.1167 8.33726 29.9999 8.75749 28.985C9.17773 27.97 9.88947 27.1024 10.8027 26.4919C11.716 25.8814 12.7898 25.557 13.8883 25.5567Z" fill="white"/>
<path opacity="0.8" d="M19.4434 3.33331H24.9984C26.4719 3.33331 27.885 3.91866 28.9269 4.96058C29.9688 6.0025 30.5542 7.41565 30.5542 8.88915C30.5542 10.3626 29.9688 11.7758 28.9269 12.8177C27.885 13.8596 26.4719 14.445 24.9984 14.445H19.4434V3.33331Z" fill="white"/>
</svg>
