<svg width="40" height="40" viewBox="0 0 40 40" fill="none" xmlns="http://www.w3.org/2000/svg">
<path d="M22.2233 26.7583L20.7933 28.7383C22.15 29.9483 23.8367 30.5533 25.8533 30.5533C27.3933 30.5167 28.5667 30.1194 29.3733 29.3617C30.1922 28.5917 30.6017 27.675 30.6017 26.6117C30.6017 25.5728 30.3144 24.7172 29.74 24.045C29.1656 23.3728 28.2 22.835 26.8433 22.4317C25.7211 22.0906 24.9267 21.7789 24.46 21.4967C23.9956 21.2033 23.7633 20.8489 23.7633 20.4333C23.7633 20.0556 23.9528 19.75 24.3317 19.5167C24.7117 19.2833 25.2189 19.1672 25.8533 19.1683C26.3189 19.1683 26.8444 19.26 27.43 19.4433C28.0167 19.6022 28.5361 19.8589 28.9883 20.2133L30.2717 18.215C29.1483 17.3106 27.6572 16.8583 25.7983 16.8583C24.4672 16.8583 23.3733 17.2006 22.5167 17.885C21.6367 18.5683 21.1967 19.4178 21.1967 20.4333C21.2089 21.5089 21.5633 22.3461 22.26 22.945C22.9689 23.545 23.9772 24.0339 25.285 24.4117C26.3739 24.7528 27.1133 25.095 27.5033 25.4383C27.6836 25.5918 27.8279 25.7831 27.9261 25.9985C28.0243 26.2139 28.074 26.4483 28.0717 26.685C28.0808 26.9018 28.0333 27.1172 27.934 27.31C27.8346 27.5029 27.6868 27.6666 27.505 27.785C27.1128 28.0539 26.55 28.1883 25.8167 28.1883C24.62 28.1994 23.4222 27.7228 22.2233 26.7583ZM13.0067 27.8217C12.6047 27.5674 12.256 27.2374 11.98 26.85L10.2567 28.2617C10.7711 29.1283 11.4067 29.7333 12.1633 30.0767C12.8722 30.3933 13.685 30.5522 14.6017 30.5533C15.1017 30.5533 15.6211 30.4739 16.16 30.315C16.6989 30.1561 17.1939 29.8872 17.645 29.5083C18.4394 28.8728 18.855 27.8339 18.8917 26.3917V17.0783H16.4167V25.915C16.4167 26.7594 16.2278 27.3522 15.85 27.6933C15.47 28.0233 14.9928 28.1883 14.4183 28.1883C13.8683 28.1883 13.3978 28.0661 13.0067 27.8217ZM5 10C5 8.67392 5.52678 7.40215 6.46447 6.46447C7.40215 5.52678 8.67392 5 10 5H30C31.3261 5 32.5979 5.52678 33.5355 6.46447C34.4732 7.40215 35 8.67392 35 10V30C35 31.3261 34.4732 32.5979 33.5355 33.5355C32.5979 34.4732 31.3261 35 30 35H10C8.67392 35 7.40215 34.4732 6.46447 33.5355C5.52678 32.5979 5 31.3261 5 30V10ZM10 8.33333C9.55797 8.33333 9.13405 8.50893 8.82149 8.82149C8.50893 9.13405 8.33333 9.55797 8.33333 10V30C8.33333 30.442 8.50893 30.866 8.82149 31.1785C9.13405 31.4911 9.55797 31.6667 10 31.6667H30C30.442 31.6667 30.866 31.4911 31.1785 31.1785C31.4911 30.866 31.6667 30.442 31.6667 30V10C31.6667 9.55797 31.4911 9.13405 31.1785 8.82149C30.866 8.50893 30.442 8.33333 30 8.33333H10Z" fill="white"/>
</svg>
