<svg width="40" height="40" viewBox="0 0 40 40" fill="none" xmlns="http://www.w3.org/2000/svg">
<mask id="mask0_4_563" style="mask-type:luminance" maskUnits="userSpaceOnUse" x="0" y="0" width="40" height="40">
<path d="M0 0H40V40H0V0Z" fill="white"/>
</mask>
<g mask="url(#mask0_4_563)">
<path d="M40 19.4817C40 16.8317 36.6817 14.32 31.5933 12.7634C32.7683 7.57835 32.2467 3.45169 29.9467 2.13002C29.3892 1.81827 28.7586 1.66118 28.12 1.67502V3.49169C28.495 3.49169 28.7967 3.56669 29.05 3.70502C30.1583 4.34169 30.64 6.76169 30.265 9.87669C30.175 10.6434 30.0283 11.45 29.8483 12.2734C28.1441 11.8642 26.4148 11.5674 24.6717 11.385C23.6325 9.9526 22.4995 8.59072 21.28 7.30835C23.9383 4.83835 26.4333 3.48502 28.13 3.48502V1.66669C25.8867 1.66669 22.9517 3.26502 19.9833 6.03669C17.0167 3.28335 14.08 1.70002 11.8383 1.70002V3.51669C13.5267 3.51669 16.03 4.86335 18.6883 7.31669C17.5467 8.51669 16.405 9.87669 15.32 11.385C13.5732 11.5648 11.8408 11.8644 10.135 12.2817C9.94833 11.4661 9.80667 10.6784 9.71 9.91835C9.32667 6.80169 9.8 4.38169 10.9017 3.73835C11.145 3.59169 11.4633 3.52502 11.8383 3.52502V1.70835C11.155 1.70835 10.5333 1.85502 9.99667 2.16335C7.705 3.48502 7.19167 7.60169 8.37333 12.7717C3.30167 14.3384 0 16.84 0 19.4817C0 22.1317 3.31833 24.6434 8.40667 26.1984C7.23167 31.385 7.75333 35.5117 10.0533 36.8317C10.5833 37.1417 11.2033 37.2884 11.8867 37.2884C14.13 37.2884 17.065 35.69 20.0333 32.9184C23 35.6734 25.935 37.255 28.1783 37.255C28.8217 37.267 29.4568 37.1095 30.02 36.7984C32.3117 35.4784 32.825 31.3617 31.6433 26.1917C36.6983 24.635 40 22.1234 40 19.4817ZM29.3833 14.0434C29.0667 15.1331 28.6996 16.2076 28.2833 17.2634C27.6031 15.9373 26.8549 14.6473 26.0417 13.3984C27.2017 13.5684 28.3161 13.7834 29.385 14.0434M25.6517 22.7267C25.0411 23.7924 24.3855 24.8317 23.6867 25.8417C21.2404 26.0569 18.7801 26.0597 16.3333 25.85C14.9302 23.8451 13.7029 21.7228 12.665 19.5067C13.7005 17.285 14.9227 15.1551 16.3183 13.14C18.764 12.9243 21.2238 12.921 23.67 13.13C24.3478 14.1022 25.0056 15.1356 25.6433 16.23C26.2622 17.2978 26.8278 18.3789 27.34 19.4734C26.8216 20.5803 26.2584 21.6656 25.6517 22.7267ZM28.2833 21.6667C28.7233 22.76 29.1 23.8517 29.4083 24.9117C28.3417 25.1734 27.215 25.3934 26.05 25.5634C26.8588 24.3025 27.6042 23.0019 28.2833 21.6667ZM20.0167 30.3667C19.2567 29.5822 18.5011 28.7122 17.75 27.7567C18.4833 27.79 19.2333 27.815 19.9917 27.815C20.7594 27.8161 21.515 27.7967 22.2583 27.7567C21.525 28.7117 20.7667 29.5834 20.0167 30.3667ZM13.95 25.5634C12.8262 25.4008 11.7105 25.1861 10.6067 24.92C10.9083 23.8684 11.2833 22.7834 11.7067 21.7C12.0417 22.35 12.3933 23.0034 12.7767 23.6567C13.16 24.3089 13.5511 24.9445 13.95 25.5634ZM19.975 8.59669C20.735 9.38113 21.4906 10.2511 22.2417 11.2067C21.5083 11.1734 20.7583 11.1484 20 11.1484C19.2322 11.1472 18.4767 11.1667 17.7333 11.2067C18.4667 10.2517 19.225 9.38002 19.975 8.59669ZM13.9417 13.4C13.1331 14.6582 12.3877 15.9559 11.7083 17.2884C11.2805 16.2257 10.905 15.1428 10.5833 14.0434C11.65 13.79 12.7767 13.57 13.9417 13.4ZM6.56333 23.6067C3.67667 22.3767 1.81 20.7617 1.81 19.4817C1.81 18.2017 3.67667 16.5784 6.56333 15.3567C7.26333 15.055 8.03 14.785 8.82167 14.5334C9.28667 16.13 9.89833 17.7934 10.655 19.4984C9.93981 21.1017 9.33561 22.7522 8.84667 24.4384C8.07252 24.1983 7.31051 23.9208 6.56333 23.6067ZM10.95 35.2567C9.84167 34.6234 9.36 32.2 9.735 29.0867C9.825 28.32 9.97167 27.5117 10.1517 26.6884C11.7483 27.08 13.4933 27.3817 15.3283 27.5784C16.3675 29.0108 17.5005 30.3727 18.72 31.655C16.0617 34.125 13.5667 35.4784 11.87 35.4784C11.5502 35.4796 11.2347 35.4042 10.95 35.2584M30.29 29.0467C30.6733 32.1617 30.2 34.5834 29.0983 35.2267C28.855 35.3734 28.5367 35.4384 28.1617 35.4384C26.4733 35.4384 23.97 34.0934 21.3117 31.6384C22.5266 30.3618 23.652 29.0031 24.68 27.5717C26.4268 27.3919 28.1592 27.0923 29.865 26.675C30.055 27.4972 30.1967 28.2878 30.29 29.0467ZM33.4283 23.6084C32.7283 23.91 31.9617 24.18 31.17 24.4317C30.6715 22.7372 30.059 21.0785 29.3367 19.4667C30.0867 17.7717 30.6883 16.1167 31.145 14.5267C31.9539 14.7789 32.7178 15.0561 33.4367 15.3584C36.3233 16.5884 38.19 18.2034 38.19 19.4834C38.1817 20.7634 36.315 22.3867 33.4283 23.6084Z" fill="white"/>
<path d="M19.9917 23.2083C20.9801 23.2083 21.9279 22.8157 22.6268 22.1168C23.3257 21.4179 23.7183 20.47 23.7183 19.4817C23.7183 18.4933 23.3257 17.5454 22.6268 16.8465C21.9279 16.1476 20.9801 15.755 19.9917 15.755C19.0033 15.755 18.0554 16.1476 17.3565 16.8465C16.6576 17.5454 16.265 18.4933 16.265 19.4817C16.265 20.47 16.6576 21.4179 17.3565 22.1168C18.0554 22.8157 19.0033 23.2083 19.9917 23.2083Z" fill="white"/>
</g>
</svg>
