<svg width="40" height="40" viewBox="0 0 40 40" fill="none" xmlns="http://www.w3.org/2000/svg">
<path d="M1.61328 15.045L14.4749 22.425L14.4649 24.625L7.14828 20.4283L2.54328 23.045L14.4566 29.9117L14.4649 32.0283L1.70161 24.6867C1.73495 25.5467 2.51495 28.1967 4.00661 30.2483C5.52328 32.3267 7.24995 33.2083 7.24995 33.2083L19.0466 40V19.7483L1.62495 9.74333L1.61328 15.045ZM38.3866 8.71167L25.3666 1.205C25.3666 1.205 23.3033 0 20.0133 0C16.5866 0 14.5999 1.24333 14.5999 1.24333L2.53995 8.14333L20.8883 18.69V40L32.9633 33.1067C32.9633 33.1067 35.1216 31.915 36.7616 29.0833C38.2066 26.59 38.3866 24.1783 38.3866 24.1783V8.71167ZM18.7516 12.18C18.7516 12.18 21.4433 11.6833 23.7183 12.9967L27.3366 15.08C27.3366 15.08 27.3416 16.9083 27.3416 19.64C27.3416 21.8283 25.4883 24.0967 25.4883 24.0967L25.4916 16.07L18.7516 12.18ZM29.4216 29.7833L25.4916 32.0383V29.9233L28.5499 28.1733C31.4633 26.0733 31.9449 22.9783 31.9449 21.905L31.9333 12.3967L23.5899 7.595C23.5899 7.595 22.3233 6.76333 20.0416 6.76333C17.7633 6.76333 16.5199 7.53167 16.5199 7.53167L13.5899 9.21667L11.7399 8.14833L15.7883 5.83333C15.7883 5.83333 17.3716 4.955 20.0283 4.955C22.4649 4.955 24.3616 5.90667 24.3616 5.90667L33.7833 11.35L33.7716 21.7267C33.8383 23.3217 33.0949 27.2183 29.4216 29.7833Z" fill="white"/>
</svg>
