<svg width="14" height="20" viewBox="0 0 14 20" fill="none" xmlns="http://www.w3.org/2000/svg">
<path d="M6.8421 4.21053C7.54004 4.21053 8.2094 4.48778 8.70291 4.9813C9.19643 5.47481 9.47368 6.14417 9.47368 6.84211C9.47368 7.18769 9.40562 7.52989 9.27337 7.84917C9.14112 8.16845 8.94728 8.45855 8.70291 8.70291C8.45855 8.94728 8.16844 9.14112 7.84917 9.27337C7.52989 9.40562 7.18769 9.47368 6.8421 9.47368C6.14417 9.47368 5.47481 9.19643 4.9813 8.70291C4.48778 8.2094 4.21053 7.54004 4.21053 6.84211C4.21053 6.14417 4.48778 5.47481 4.9813 4.9813C5.47481 4.48778 6.14417 4.21053 6.8421 4.21053ZM6.8421 5.26316C6.42334 5.26316 6.02173 5.42951 5.72562 5.72562C5.42951 6.02173 5.26316 6.42334 5.26316 6.84211C5.26316 7.26087 5.42951 7.66248 5.72562 7.95859C6.02173 8.2547 6.42334 8.42105 6.8421 8.42105C7.26087 8.42105 7.66248 8.2547 7.95859 7.95859C8.2547 7.66248 8.42105 7.26087 8.42105 6.84211C8.42105 6.42334 8.2547 6.02173 7.95859 5.72562C7.66248 5.42951 7.26087 5.26316 6.8421 5.26316ZM1.89474 9.85263L6.8421 17.9895L11.7895 9.85263C12.3263 8.94737 12.6316 7.94737 12.6316 6.84211C12.6316 5.30664 12.0216 3.83407 10.9359 2.74833C9.85014 1.66259 8.37757 1.05263 6.8421 1.05263C5.30664 1.05263 3.83407 1.66259 2.74833 2.74833C1.66259 3.83407 1.05263 5.30664 1.05263 6.84211C1.05263 7.94737 1.35789 8.94737 1.89474 9.85263ZM12.6842 10.4L6.8421 20L1 10.4C0.368421 9.35789 0 8.14737 0 6.84211C0 5.02747 0.720862 3.28715 2.00401 2.00401C3.28715 0.720862 5.02747 0 6.8421 0C8.65674 0 10.3971 0.720862 11.6802 2.00401C12.9633 3.28715 13.6842 5.02747 13.6842 6.84211C13.6842 8.14737 13.3158 9.35789 12.6842 10.4Z" fill="white"/>
</svg>
